# Blender 4.5.1 LTS
# www.blender.org
mtllib coin_table.mtl
o table
v 4.263749 1.884581 -2.007408
v 4.263749 1.634703 -2.007408
v 4.263749 1.884581 2.007408
v 4.263749 1.634703 2.007408
v -4.263749 1.884581 -2.007408
v -4.263749 1.634703 -2.007408
v -4.263749 1.884581 2.007408
v -4.263749 1.634703 2.007408
v 3.855945 -0.418517 2.007408
v 4.263749 -0.418517 2.007408
v 4.263749 -0.418517 -2.007408
v 3.855945 -0.418517 -2.007408
v 3.855945 1.634703 -2.007408
v -3.855945 1.634703 -2.007408
v 3.855945 1.884581 2.007408
v -3.855945 1.884581 2.007408
v 3.855945 1.634703 2.007408
v -3.855945 1.634703 2.007408
v -3.855945 1.884581 -2.007408
v 3.855945 1.884581 -2.007408
v -4.263749 -0.418517 2.007408
v -3.855945 -0.418517 2.007408
v -3.855945 -0.418517 -2.007408
v -4.263749 -0.418517 -2.007408
v 4.263749 1.634703 -1.582272
v 4.263749 1.634703 1.582272
v -4.263749 1.884581 -1.582272
v -4.263749 1.884581 1.582272
v 4.263749 1.884581 1.582272
v 4.263749 1.884581 -1.582272
v -4.263749 1.634703 1.582272
v -4.263749 1.634703 -1.582272
v 3.855945 1.634703 1.582272
v 3.855945 1.634703 -1.582272
v -3.855945 1.634703 -1.582272
v -3.855945 1.634703 1.582272
v -3.855945 1.884581 1.582272
v -3.855945 1.884581 -1.582272
v 3.855945 1.884581 -1.582272
v 3.855945 1.884581 1.582272
v -3.855945 -0.418517 1.582272
v -4.263749 -0.418517 1.582272
v -4.263749 -0.418517 -1.582272
v -3.855945 -0.418517 -1.582272
v 4.263749 -0.418517 1.582272
v 3.855945 -0.418517 1.582272
v 3.855945 -0.418517 -1.582272
v 4.263749 -0.418517 -1.582272
v 4.481651 1.884581 -2.225310
v 4.481651 1.634703 -2.225310
v -4.481651 1.634703 2.225310
v -4.481651 1.884581 2.225310
v 4.481651 1.884581 2.225310
v 4.481651 1.634703 2.225310
v -4.481651 1.884581 -2.225310
v -4.481651 1.634703 -2.225310
v -3.855945 1.884581 -2.315568
v 3.855945 1.884581 -2.315568
v 3.855945 1.634703 -2.315568
v -3.855945 1.634703 -2.315568
v 3.855945 1.634703 2.315568
v -3.855945 1.634703 2.315568
v 3.855945 1.884581 2.315568
v -3.855945 1.884581 2.315568
v -4.571909 1.634703 1.582272
v -4.571909 1.634703 -1.582272
v 4.571909 1.634703 -1.582272
v 4.571909 1.634703 1.582272
v 4.571909 1.884581 1.582272
v 4.571909 1.884581 -1.582272
v -4.571909 1.884581 -1.582272
v -4.571909 1.884581 1.582272
vn -0.0000 -0.0000 1.0000
vn -0.0000 -0.0000 -1.0000
vn -1.0000 -0.0000 -0.0000
vn 1.0000 -0.0000 -0.0000
vn -0.0000 -1.0000 -0.0000
vn -0.0000 1.0000 -0.0000
vn -0.1428 -0.0000 -0.9898
vn 0.1428 -0.0000 -0.9898
vn -0.1428 -0.0000 0.9898
vn 0.1428 -0.0000 0.9898
vn 0.9903 -0.0000 -0.1390
vn 0.9903 -0.0000 0.1390
vn -0.9903 -0.0000 0.1390
vn -0.9903 -0.0000 -0.1390
vt 0.375000 0.750000
vt 0.375000 0.761955
vt 0.375000 0.488044
vt 0.375000 0.500000
vt 0.375000 0.223527
vt 0.375000 0.250000
vt 0.375000 0.988044
vt 0.375000 1.000000
vt 0.375000 0.723527
vt 0.136956 0.526473
vt 0.125000 0.526473
vt 0.125000 0.500000
vt 0.136956 0.500000
vt 0.125000 0.723527
vt 0.136956 0.723527
vt 0.136956 0.750000
vt 0.125000 0.750000
vt 0.363045 0.723527
vt 0.363044 0.750000
vt 0.375000 0.526473
vt 0.363045 0.526473
vt 0.363044 0.500000
vt 0.375000 0.000000
vt 0.375000 0.026473
vt 0.875000 0.750000
vt 0.875000 0.723527
vt 0.375000 0.261956
vt 0.636956 0.723527
vt 0.625000 0.723527
vt 0.625000 0.526473
vt 0.636956 0.526473
vt 0.863045 0.723527
vt 0.863045 0.526473
vt 0.875000 0.526473
vt 0.625000 0.750000
vt 0.636956 0.750000
vt 0.863045 0.500000
vt 0.875000 0.500000
vt 0.863045 0.750000
vt 0.625000 0.500000
vt 0.636956 0.500000
vt 0.625000 0.488044
vt 0.625000 0.261956
vt 0.625000 0.988044
vt 0.625000 0.761955
vt 0.625000 0.250000
vt 0.625000 1.000000
vt 0.625000 0.223527
vt 0.625000 0.026473
vt 0.625000 0.000000
s 0
usemtl Material
f 4/1/1 17/2/1 9/2/1 10/1/1
f 13/3/2 2/4/2 11/4/2 12/3/2
f 32/5/3 6/6/3 24/6/3 43/5/3
f 18/7/1 8/8/1 21/8/1 22/7/1
f 26/9/4 4/1/4 10/1/4 45/9/4
f 35/10/1 32/11/1 43/11/1 44/10/1
f 24/12/5 23/13/5 44/10/5 43/11/5
f 42/14/5 41/15/5 22/16/5 21/17/5
f 46/18/5 45/9/5 10/1/5 9/19/5
f 25/20/1 34/21/1 47/21/1 48/20/1
f 8/8/5 18/7/5 62/7/5 51/8/5
f 33/18/2 26/9/2 45/9/2 46/18/2
f 25/20/5 2/4/5 50/4/5 67/20/5
f 12/22/5 11/4/5 48/20/5 47/21/5
f 8/23/3 31/24/3 42/24/3 21/23/3
f 7/25/6 28/26/6 72/26/6 52/25/6
f 6/6/2 14/27/2 23/27/2 24/6/2
f 18/16/5 17/19/5 61/19/5 62/16/5
f 14/27/5 6/6/5 56/6/5 60/27/5
f 34/21/3 13/22/3 12/22/3 47/21/3
f 4/1/5 26/9/5 68/9/5 54/1/5
f 2/4/4 25/20/4 48/20/4 11/4/4
f 36/15/5 31/14/5 32/11/5 35/10/5
f 26/9/5 33/18/5 34/21/5 25/20/5
f 40/28/6 29/29/6 30/30/6 39/31/6
f 28/26/6 37/32/6 38/33/6 27/34/6
f 37/32/6 40/28/6 39/31/6 38/33/6
f 33/18/5 36/15/5 35/10/5 34/21/5
f 30/30/6 29/29/6 69/29/6 70/30/6
f 3/35/6 15/36/6 63/36/6 53/35/6
f 14/13/4 35/10/4 44/10/4 23/13/4
f 31/24/5 8/23/5 51/23/5 65/24/5
f 17/19/3 33/18/3 46/18/3 9/19/3
f 32/11/5 31/14/5 65/14/5 66/11/5
f 19/37/6 5/38/6 27/34/6 38/33/6
f 16/39/6 7/25/6 52/25/6 64/39/6
f 27/34/6 5/38/6 55/38/6 71/34/6
f 37/32/6 28/26/6 7/25/6 16/39/6
f 29/29/6 40/28/6 15/36/6 3/35/6
f 1/40/6 20/41/6 39/31/6 30/30/6
f 31/14/2 36/15/2 41/15/2 42/14/2
f 36/15/4 18/16/4 22/16/4 41/15/4
f 33/18/5 17/19/5 18/16/5 36/15/5
f 13/22/5 34/21/5 35/10/5 14/13/5
f 37/32/6 16/39/6 15/36/6 40/28/6
f 19/37/6 38/33/6 39/31/6 20/41/6
f 58/42/2 59/3/2 60/27/2 57/43/2
f 64/44/1 62/7/1 61/2/1 63/45/1
f 56/6/7 55/46/7 57/43/7 60/27/7
f 59/3/8 58/42/8 49/40/8 50/4/8
f 62/7/9 64/44/9 52/47/9 51/8/9
f 54/1/10 53/35/10 63/45/10 61/2/10
f 69/29/4 68/9/4 67/20/4 70/30/4
f 71/48/3 66/5/3 65/24/3 72/49/3
f 50/4/11 49/40/11 70/30/11 67/20/11
f 68/9/12 69/29/12 53/35/12 54/1/12
f 51/23/13 52/50/13 72/49/13 65/24/13
f 66/5/14 71/48/14 55/46/14 56/6/14
f 26/9/5 25/20/5 67/20/5 68/9/5
f 6/6/5 32/5/5 66/5/5 56/6/5
f 28/26/6 27/34/6 71/34/6 72/26/6
f 1/40/6 30/30/6 70/30/6 49/40/6
f 5/38/6 19/37/6 57/37/6 55/38/6
f 15/36/6 16/39/6 64/39/6 63/36/6
f 19/37/6 20/41/6 58/41/6 57/37/6
f 2/4/5 13/3/5 59/3/5 50/4/5
f 29/29/6 3/35/6 53/35/6 69/29/6
f 17/2/5 4/1/5 54/1/5 61/2/5
f 13/22/5 14/13/5 60/13/5 59/22/5
f 20/41/6 1/40/6 49/40/6 58/41/6
