# Blender 4.5.1 LTS
# www.blender.org
mtllib shop_shelf.mtl
o shop_shelf
v -0.263460 -1.180707 3.889368
v -0.263460 0.759665 3.889368
v -0.263460 -1.180707 1.007042
v -0.263460 0.759665 1.007042
v -0.145286 -1.180707 3.889368
v -0.145286 0.759665 3.889368
v -0.263460 -0.759665 3.889368
v -0.263460 -0.759665 1.007042
v -0.145286 -0.759665 1.007042
v -0.145286 -0.759665 3.889368
v -0.263460 0.759665 0.000000
v -0.145286 0.759665 0.000000
v -0.263460 -0.759665 0.000000
v -0.145286 -0.759665 0.000000
v -0.263460 0.000000 3.889368
v -0.263460 0.000000 1.007042
v -0.145286 0.000000 3.889368
v -0.263460 0.000000 0.000000
v -0.145286 0.000000 0.000000
v 0.193367 0.679035 3.808738
v 0.193367 -0.679035 3.808738
v 0.193367 -0.679035 0.045244
v 0.193367 0.679035 0.045244
v 0.193367 0.679035 1.063929
v 0.193367 0.679035 0.950156
v 0.193367 -0.040457 1.063929
v 0.193367 -0.040457 0.950156
v 0.193367 0.040457 0.950156
v 0.193367 0.040457 1.063929
v 0.193367 -0.679035 0.950156
v 0.193367 -0.679035 1.063929
v 0.145286 -0.759665 1.007042
v 0.193367 -0.040457 3.808738
v 0.193367 0.040457 3.808738
v 0.145286 0.000000 3.889368
v 0.193367 0.040457 0.045244
v 0.193367 -0.040457 0.045244
v 0.145286 0.000000 0.000000
v 0.193367 -0.018831 1.007042
v 0.193367 0.018831 1.007042
v 0.193367 0.759665 1.007042
v 0.193367 -0.018831 0.000000
v 0.193367 0.018831 0.000000
v 0.193367 0.018831 3.889368
v 0.193367 -0.018831 3.889368
v 0.193367 0.759665 0.000000
v 0.193367 0.759665 3.889368
v 0.193367 -0.759665 0.000000
v -0.146610 -0.040457 1.063929
v -0.146610 -0.679035 1.063929
v -0.146610 -0.679035 0.950156
v -0.146610 -0.040457 0.950156
v -0.146610 0.679035 1.063929
v -0.146610 0.040457 1.063929
v -0.146610 0.040457 0.950156
v -0.146610 0.679035 0.950156
v -0.146610 -0.040457 0.045244
v -0.146610 0.040457 0.045244
v -0.146610 0.040457 3.808738
v -0.146610 -0.040457 3.808738
v -0.146610 0.679035 0.045244
v -0.146610 0.679035 3.808738
v -0.146610 -0.679035 3.808738
v -0.146610 -0.679035 0.045244
v -0.145286 -1.180707 3.808738
v -0.145286 -0.759665 3.801112
v -0.145286 -0.759665 1.089103
v 0.193367 -0.759665 1.096730
v 0.193367 -0.759665 1.007042
v 0.193367 -0.759665 3.889368
v 0.193367 -0.759665 3.801112
v 0.193367 -0.759665 1.089103
v 0.193367 -0.841622 1.007042
v -0.145286 -1.180707 1.007042
v 0.153567 -0.842458 1.007042
v 0.113873 -0.845489 1.007042
v 0.074507 -0.851421 1.007042
v 0.035881 -0.861066 1.007042
v -0.001294 -0.875325 1.007042
v -0.035908 -0.895012 1.007042
v -0.066551 -0.920457 1.007042
v -0.091964 -0.951139 1.007042
v -0.111625 -0.985798 1.007042
v -0.125867 -1.023020 1.007042
v -0.135499 -1.061696 1.007042
v -0.141424 -1.101112 1.007042
v -0.144451 -1.140856 1.007042
v 0.193367 -0.841622 3.889368
v -0.144451 -1.140856 3.889368
v -0.141424 -1.101112 3.889368
v -0.135499 -1.061696 3.889368
v -0.125867 -1.023020 3.889368
v -0.111625 -0.985798 3.889368
v -0.091964 -0.951139 3.889368
v -0.066551 -0.920457 3.889368
v -0.035908 -0.895012 3.889368
v -0.001294 -0.875325 3.889368
v 0.035881 -0.861066 3.889368
v 0.074507 -0.851421 3.889368
v 0.113873 -0.845489 3.889368
v 0.153567 -0.842458 3.889368
v -0.145286 -1.180707 1.089103
v 0.193367 -0.841622 1.089103
v -0.144451 -1.140856 1.089103
v -0.141424 -1.101112 1.089103
v -0.135499 -1.061696 1.089103
v -0.125867 -1.023020 1.089103
v -0.111625 -0.985798 1.089103
v -0.091964 -0.951139 1.089103
v -0.066551 -0.920457 1.089103
v -0.035908 -0.895012 1.089103
v -0.001294 -0.875325 1.089103
v 0.035881 -0.861066 1.089103
v 0.074507 -0.851421 1.089103
v 0.113873 -0.845489 1.089103
v 0.153567 -0.842458 1.089103
v 0.193367 -0.841622 3.802597
v 0.153567 -0.842458 3.802612
v 0.113873 -0.845489 3.802667
v 0.074507 -0.851421 3.802774
v 0.035881 -0.861066 3.802949
v -0.001294 -0.875325 3.803207
v -0.035908 -0.895012 3.803564
v -0.066551 -0.920457 3.804024
v -0.091964 -0.951139 3.804580
v -0.111625 -0.985798 3.805208
v -0.125867 -1.023020 3.805882
v -0.135499 -1.061696 3.806583
v -0.141424 -1.101112 3.807297
v -0.144451 -1.140856 3.808017
v -0.263460 0.831055 3.889368
v -0.263460 0.831055 1.007042
v -0.145286 0.831055 1.007042
v -0.145286 0.831055 3.889368
v -0.263460 0.831056 0.000000
v -0.145286 0.831056 0.000000
v 0.193367 0.831055 3.889368
v 0.193367 0.831056 0.000000
v 0.193367 0.831055 1.007042
v 0.145286 0.831055 1.007042
v 0.270054 0.759665 3.966054
v 0.193367 0.759665 3.966054
v 0.193367 0.831055 3.966054
v -0.145286 0.831055 3.966054
v -0.263460 0.759665 3.966054
v -0.145286 0.759665 3.966054
v 0.270054 0.831055 3.966054
v -0.263460 0.831055 3.966054
v 0.270054 0.831055 3.889368
v 0.270054 0.831055 1.007042
v 0.270054 0.759665 1.007042
v 0.270054 0.759665 0.000000
v 0.270054 0.831056 0.000000
v 0.270054 0.759665 3.889368
v -0.263460 -1.180707 -3.889368
v -0.263460 0.759665 -3.889368
v -0.263460 -1.180707 -1.007042
v -0.263460 0.759665 -1.007042
v -0.145286 -1.180707 -3.889368
v -0.145286 0.759665 -3.889368
v -0.263460 -0.759665 -3.889368
v -0.263460 -0.759665 -1.007042
v -0.145286 -0.759665 -1.007042
v -0.145286 -0.759665 -3.889368
v -0.263460 0.000000 -3.889368
v -0.263460 0.000000 -1.007042
v -0.145286 0.000000 -3.889368
v 0.193367 0.679035 -3.808738
v 0.193367 -0.679035 -3.808738
v 0.193367 -0.679035 -0.045244
v 0.193367 0.679035 -0.045244
v 0.193367 0.679035 -1.063929
v 0.193367 0.679035 -0.950156
v 0.193367 -0.040457 -1.063929
v 0.193367 -0.040457 -0.950156
v 0.193367 0.040457 -0.950156
v 0.193367 0.040457 -1.063929
v 0.193367 -0.679035 -0.950156
v 0.193367 -0.679035 -1.063929
v 0.145286 -0.759665 -1.007042
v 0.193367 -0.040457 -3.808738
v 0.193367 0.040457 -3.808738
v 0.145286 0.000000 -3.889368
v 0.193367 0.040457 -0.045244
v 0.193367 -0.040457 -0.045244
v 0.193367 -0.018831 -1.007042
v 0.193367 0.018831 -1.007042
v 0.193367 0.759665 -1.007042
v 0.193367 0.018831 -3.889368
v 0.193367 -0.018831 -3.889368
v 0.193367 0.759665 -3.889368
v -0.146610 -0.040457 -1.063929
v -0.146610 -0.679035 -1.063929
v -0.146610 -0.679035 -0.950156
v -0.146610 -0.040457 -0.950156
v -0.146610 0.679035 -1.063929
v -0.146610 0.040457 -1.063929
v -0.146610 0.040457 -0.950156
v -0.146610 0.679035 -0.950156
v -0.146610 -0.040457 -0.045244
v -0.146610 0.040457 -0.045244
v -0.146610 0.040457 -3.808738
v -0.146610 -0.040457 -3.808738
v -0.146610 0.679035 -0.045244
v -0.146610 0.679035 -3.808738
v -0.146610 -0.679035 -3.808738
v -0.146610 -0.679035 -0.045244
v -0.145286 -1.180707 -3.808738
v -0.145286 -0.759665 -3.801112
v -0.145286 -0.759665 -1.089103
v 0.193367 -0.759665 -1.096730
v 0.193367 -0.759665 -1.007042
v 0.193367 -0.759665 -3.889368
v 0.193367 -0.759665 -3.801112
v 0.193367 -0.759665 -1.089103
v 0.193367 -0.841622 -1.007042
v -0.145286 -1.180707 -1.007042
v 0.153567 -0.842458 -1.007042
v 0.113873 -0.845489 -1.007042
v 0.074507 -0.851421 -1.007042
v 0.035881 -0.861066 -1.007042
v -0.001294 -0.875325 -1.007042
v -0.035908 -0.895012 -1.007042
v -0.066551 -0.920457 -1.007042
v -0.091964 -0.951139 -1.007042
v -0.111625 -0.985798 -1.007042
v -0.125867 -1.023020 -1.007042
v -0.135499 -1.061696 -1.007042
v -0.141424 -1.101112 -1.007042
v -0.144451 -1.140856 -1.007042
v 0.193367 -0.841622 -3.889368
v -0.144451 -1.140856 -3.889368
v -0.141424 -1.101112 -3.889368
v -0.135499 -1.061696 -3.889368
v -0.125867 -1.023020 -3.889368
v -0.111625 -0.985798 -3.889368
v -0.091964 -0.951139 -3.889368
v -0.066551 -0.920457 -3.889368
v -0.035908 -0.895012 -3.889368
v -0.001294 -0.875325 -3.889368
v 0.035881 -0.861066 -3.889368
v 0.074507 -0.851421 -3.889368
v 0.113873 -0.845489 -3.889368
v 0.153567 -0.842458 -3.889368
v -0.145286 -1.180707 -1.089103
v 0.193367 -0.841622 -1.089103
v -0.144451 -1.140856 -1.089103
v -0.141424 -1.101112 -1.089103
v -0.135499 -1.061696 -1.089103
v -0.125867 -1.023020 -1.089103
v -0.111625 -0.985798 -1.089103
v -0.091964 -0.951139 -1.089103
v -0.066551 -0.920457 -1.089103
v -0.035908 -0.895012 -1.089103
v -0.001294 -0.875325 -1.089103
v 0.035881 -0.861066 -1.089103
v 0.074507 -0.851421 -1.089103
v 0.113873 -0.845489 -1.089103
v 0.153567 -0.842458 -1.089103
v 0.193367 -0.841622 -3.802597
v 0.153567 -0.842458 -3.802612
v 0.113873 -0.845489 -3.802667
v 0.074507 -0.851421 -3.802774
v 0.035881 -0.861066 -3.802949
v -0.001294 -0.875325 -3.803207
v -0.035908 -0.895012 -3.803564
v -0.066551 -0.920457 -3.804024
v -0.091964 -0.951139 -3.804580
v -0.111625 -0.985798 -3.805208
v -0.125867 -1.023020 -3.805882
v -0.135499 -1.061696 -3.806583
v -0.141424 -1.101112 -3.807297
v -0.144451 -1.140856 -3.808017
v -0.263460 0.831055 -3.889368
v -0.263460 0.831055 -1.007042
v -0.145286 0.831055 -1.007042
v -0.145286 0.831055 -3.889368
v 0.193367 0.831055 -3.889368
v 0.193367 0.831055 -1.007042
v 0.145286 0.831055 -1.007042
v 0.270054 0.759665 -3.966054
v 0.193367 0.759665 -3.966054
v 0.193367 0.831055 -3.966054
v -0.145286 0.831055 -3.966054
v -0.263460 0.759665 -3.966054
v -0.145286 0.759665 -3.966054
v 0.270054 0.831055 -3.966054
v -0.263460 0.831055 -3.966054
v 0.270054 0.831055 -3.889368
v 0.270054 0.831055 -1.007042
v 0.270054 0.759665 -1.007042
v 0.270054 0.759665 -3.889368
vn -1.0000 -0.0000 -0.0000
vn -0.0000 -0.0000 1.0000
vn -0.0000 -0.0000 -1.0000
vn -0.0000 -1.0000 -0.0000
vn 1.0000 -0.0000 -0.0000
vn -0.0000 1.0000 -0.0000
vn 0.9998 -0.0210 -0.0000
vn 0.9988 -0.0485 -0.0000
vn 0.9937 -0.1124 -0.0000
vn 0.9807 -0.1954 -0.0000
vn 0.9539 -0.3001 -0.0000
vn 0.9044 -0.4266 -0.0000
vn 0.8231 -0.5678 -0.0000
vn 0.7076 -0.7067 -0.0000
vn 0.5688 -0.8225 -0.0000
vn 0.4275 -0.9040 -0.0000
vn 0.3008 -0.9537 -0.0000
vn 0.1959 -0.9806 -0.0000
vn 0.1126 -0.9936 -0.0000
vn 0.0486 -0.9988 -0.0000
vn 0.0210 -0.9998 -0.0000
vn 0.9988 -0.0488 -0.0000
vn 0.9936 -0.1128 -0.0000
vn 0.9806 -0.1959 -0.0000
vn 0.9537 -0.3007 -0.0000
vn 0.9041 -0.4273 -0.0000
vn 0.8227 -0.5685 -0.0000
vn 0.7070 -0.7072 -0.0000
vn 0.7075 -0.7067 -0.0000
vn 0.5683 -0.8228 -0.0000
vn 0.4271 -0.9042 -0.0000
vn 0.3006 -0.9538 -0.0000
vn 0.1958 -0.9807 -0.0000
vn 0.1127 -0.9936 -0.0000
vn -0.0000 -0.0181 -0.9998
vn -0.0000 -0.0181 0.9998
vt 0.547643 0.000000
vt 0.625000 0.000000
vt 0.625000 0.250000
vt 0.547643 0.250000
vt 0.547643 0.750000
vt 0.625000 0.750000
vt 0.625000 1.000000
vt 0.547643 1.000000
vt 0.375000 0.750000
vt 0.470286 0.750000
vt 0.470286 1.000000
vt 0.375000 1.000000
vt 0.375000 0.250000
vt 0.470286 0.250000
vt 0.470286 0.500000
vt 0.375000 0.500000
vt 0.375000 0.000000
vt 0.470286 0.000000
vt 0.625000 0.500000
vt 0.547643 0.500000
vt 0.542747 0.750000
vt 0.552539 0.750000
vt 0.547643 0.750000
vt 0.552539 0.500000
vt 0.542747 0.500000
vt 0.547643 0.500000
vt 0.552539 0.500000
vt 0.552539 0.504172
vt 0.542747 0.504172
vt 0.478496 0.500000
vt 0.534536 0.500000
vt 0.478496 0.511165
vt 0.534536 0.511167
vt 0.534536 0.743004
vt 0.478496 0.500000
vt 0.470286 0.502441
vt 0.470286 0.500000
vt 0.470286 0.504169
vt 0.470286 0.511818
vt 0.470286 0.500000
vt 0.534536 0.500000
vt 0.616789 0.511168
vt 0.560750 0.511168
vt 0.625000 0.504172
vt 0.560749 0.499999
vt 0.616789 0.499993
vt 0.625000 0.499991
vt 0.560749 0.500000
vt 0.560750 0.743004
vt 0.616789 0.499999
vt 0.616789 0.743004
vt 0.478496 0.743004
vt 0.470286 0.742473
vt 0.125000 0.500000
vt 0.375000 0.517842
vt 0.375000 0.732158
vt 0.125000 0.750000
vt 0.470286 0.747683
vt 0.375000 0.500000
vt 0.382872 0.500000
vt 0.382872 0.516570
vt 0.390722 0.500000
vt 0.390722 0.515301
vt 0.398508 0.500000
vt 0.398508 0.514042
vt 0.406148 0.500000
vt 0.406148 0.512808
vt 0.413501 0.500000
vt 0.413501 0.511619
vt 0.420348 0.500000
vt 0.420348 0.510512
vt 0.426410 0.500000
vt 0.426410 0.509533
vt 0.439655 0.500000
vt 0.439655 0.507392
vt 0.444111 0.500000
vt 0.444111 0.506672
vt 0.447338 0.500000
vt 0.447338 0.506150
vt 0.449520 0.500000
vt 0.449520 0.505797
vt 0.450863 0.500000
vt 0.450863 0.505580
vt 0.451549 0.500000
vt 0.451549 0.505469
vt 0.451738 0.500000
vt 0.451738 0.505439
vt 0.375000 0.750000
vt 0.375000 0.732158
vt 0.382880 0.733422
vt 0.382880 0.750000
vt 0.390722 0.734679
vt 0.390722 0.750000
vt 0.398482 0.735923
vt 0.398482 0.750000
vt 0.406080 0.737140
vt 0.406079 0.750000
vt 0.413377 0.738309
vt 0.413376 0.750000
vt 0.420159 0.739395
vt 0.420158 0.750000
vt 0.426153 0.740493
vt 0.426152 0.750000
vt 0.439655 0.742693
vt 0.439655 0.750000
vt 0.444111 0.743419
vt 0.444111 0.750000
vt 0.447338 0.743944
vt 0.447338 0.750000
vt 0.449520 0.744300
vt 0.449520 0.750000
vt 0.450863 0.744519
vt 0.450863 0.750000
vt 0.451549 0.744631
vt 0.451549 0.750000
vt 0.451738 0.744661
vt 0.451738 0.750000
vt 0.875000 0.500000
vt 0.875000 0.750000
vt 0.625000 0.500000
s 1
usemtl lightbrown
f 15/1/1 2/2/1 4/3/1 16/4/1
f 16/4/1 4/3/1 11/3/1 18/4/1
f 17/5/2 6/6/2 2/7/2 15/8/2
f 5/9/2 10/10/2 7/11/2 1/12/2
f 3/13/3 8/14/3 9/15/3 74/16/3
f 1/17/1 7/18/1 8/14/1 3/13/1
f 18/4/3 11/3/3 12/19/3 19/20/3
f 9/15/4 8/14/4 13/14/4 14/15/4
f 13/14/3 18/4/3 19/20/3 14/15/3
f 10/10/2 17/5/2 15/8/2 7/11/2
f 8/14/1 16/4/1 18/4/1 13/14/1
f 7/18/1 15/1/1 16/4/1 8/14/1
f 45/21/2 44/22/2 35/23/2
f 43/24/3 42/25/3 38/26/3
f 39/25/5 42/25/5 43/24/5 40/27/5
f 40/28/5 44/22/5 45/21/5 39/29/5
f 22/30/2 37/31/2 57/31/2 64/30/2
f 31/32/2 26/33/2 49/33/2 50/32/2
f 26/33/4 33/34/4 60/34/4 49/33/4
f 30/35/6 22/30/6 64/30/6 51/35/6
f 67/36/4 9/15/4 32/37/4 69/38/4 68/39/4
f 9/15/4 14/15/4 48/15/4 69/40/4 32/37/4
f 17/5/2 10/10/2 70/10/2 45/21/2 35/23/2
f 6/6/2 17/5/2 35/23/2 44/22/2 47/6/2
f 14/15/3 19/20/3 38/26/3 42/25/3 48/15/3
f 19/20/3 12/19/3 46/19/3 43/24/3 38/26/3
f 26/33/5 31/32/5 69/38/5 39/29/5
f 30/35/5 27/41/5 39/25/5 69/40/5
f 24/42/5 29/43/5 40/28/5 41/44/5
f 28/45/5 25/46/5 41/47/5 40/27/5
f 27/41/5 37/31/5 42/25/5 39/25/5
f 36/48/5 28/45/5 40/27/5 43/24/5
f 29/43/5 34/49/5 44/22/5 40/28/5
f 33/34/5 26/33/5 39/29/5 45/21/5
f 25/46/5 23/50/5 46/19/5 41/47/5
f 23/50/5 36/48/5 43/24/5 46/19/5
f 20/51/5 24/42/5 41/44/5 47/6/5
f 34/49/5 20/51/5 47/6/5 44/22/5
f 21/52/5 70/10/5 71/53/5
f 21/52/5 33/34/5 45/21/5 70/10/5
f 22/30/5 30/35/5 69/40/5 48/15/5
f 37/31/5 22/30/5 48/15/5 42/25/5
f 56/46/5 55/45/5 58/48/5 61/50/5
f 54/43/5 53/42/5 62/51/5 59/49/5
f 50/32/5 49/33/5 60/34/5 63/52/5
f 52/41/5 51/35/5 64/30/5 57/31/5
f 23/50/4 25/46/4 56/46/4 61/50/4
f 27/41/3 30/35/3 51/35/3 52/41/3
f 36/48/2 23/50/2 61/50/2 58/48/2
f 29/43/2 24/42/2 53/42/2 54/43/2
f 24/42/4 20/51/4 62/51/4 53/42/4
f 25/46/3 28/45/3 55/45/3 56/46/3
f 20/51/3 34/49/3 59/49/3 62/51/3
f 37/31/4 27/41/4 52/41/4 57/31/4
f 21/52/6 31/32/6 50/32/6 63/52/6
f 28/45/6 36/48/6 58/48/6 55/45/6
f 33/34/3 21/52/3 63/52/3 60/34/3
f 34/49/6 29/43/6 54/43/6 59/49/6
f 31/32/5 21/52/5 71/53/5 68/39/5
f 66/58/4 67/36/4 68/39/4 71/53/4
f 69/38/5 31/32/5 68/39/5
f 9/15/6 67/36/6 72/36/6 69/15/6
f 66/58/6 10/10/6 70/10/6 71/58/6
f 102/55/7 74/59/7 87/60/8 104/61/8
f 104/61/8 87/60/8 86/62/9 105/63/9
f 105/63/9 86/62/9 85/64/10 106/65/10
f 106/65/10 85/64/10 84/66/11 107/67/11
f 107/67/11 84/66/11 83/68/12 108/69/12
f 108/69/12 83/68/12 82/70/13 109/71/13
f 109/71/13 82/70/13 81/72/14 110/73/14
f 110/73/14 81/72/14 80/74/15 111/75/15
f 111/75/15 80/74/15 79/76/16 112/77/16
f 112/77/16 79/76/16 78/78/17 113/79/17
f 113/79/17 78/78/17 77/80/18 114/81/18
f 114/81/18 77/80/18 76/82/19 115/83/19
f 115/83/19 76/82/19 75/84/20 116/85/20
f 116/85/20 75/84/20 73/86/21 103/87/21
f 5/88/7 65/89/7 130/90/22 89/91/8
f 89/91/8 130/90/22 129/92/23 90/93/9
f 90/93/9 129/92/23 128/94/24 91/95/10
f 91/95/10 128/94/24 127/96/25 92/97/11
f 92/97/11 127/96/25 126/98/26 93/99/12
f 93/99/12 126/98/26 125/100/27 94/101/13
f 94/101/13 125/100/27 124/102/28 95/103/29
f 95/103/29 124/102/28 123/104/30 96/105/15
f 96/105/15 123/104/30 122/106/31 97/107/16
f 97/107/16 122/106/31 121/108/32 98/109/17
f 98/109/17 121/108/32 120/110/33 99/111/18
f 99/111/18 120/110/33 119/112/19 100/113/34
f 100/113/34 119/112/19 118/114/20 101/115/20
f 101/115/20 118/114/20 117/116/21 88/117/21
f 74/16/3 9/15/3 69/15/3 73/86/3 75/84/3 76/82/3 77/80/3 78/78/3 79/76/3 80/74/3 81/72/3 82/70/3 83/68/3 84/66/3 85/64/3 86/62/3 87/60/3
f 73/86/5 69/15/5 72/36/5 103/87/5
f 117/116/5 71/58/5 70/10/5 88/117/5
f 10/10/2 5/88/2 89/91/2 90/93/2 91/95/2 92/97/2 93/99/2 94/101/2 95/103/2 96/105/2 97/107/2 98/109/2 99/111/2 100/113/2 101/115/2 88/117/2 70/10/2
f 67/36/2 102/55/2 104/61/2 105/63/2 106/65/2 107/67/2 108/69/2 109/71/2 110/73/2 111/75/2 112/77/2 113/79/2 114/81/2 115/83/2 116/85/2 103/87/2 72/36/2
f 65/56/35 66/58/35 71/58/35 117/116/35 118/114/35 119/112/35 120/110/35 121/108/35 122/106/35 123/104/35 124/102/35 125/100/35 126/98/35 127/96/35 128/94/35 129/92/35 130/90/35
f 165/1/1 166/4/1 158/3/1 156/2/1
f 166/4/1 18/4/1 11/3/1 158/3/1
f 167/5/3 165/8/3 156/7/3 160/6/3
f 159/9/3 155/12/3 161/11/3 164/10/3
f 157/13/2 217/16/2 163/15/2 162/14/2
f 155/17/1 157/13/1 162/14/1 161/18/1
f 163/15/4 14/15/4 13/14/4 162/14/4
f 164/10/3 161/11/3 165/8/3 167/5/3
f 162/14/1 13/14/1 18/4/1 166/4/1
f 161/18/1 162/14/1 166/4/1 165/1/1
f 190/21/3 183/23/3 189/22/3
f 186/25/5 187/27/5 43/24/5 42/25/5
f 187/28/5 186/29/5 190/21/5 189/22/5
f 170/30/3 207/30/3 200/31/3 185/31/3
f 179/32/3 193/32/3 192/33/3 174/33/3
f 174/33/4 192/33/4 203/34/4 181/34/4
f 178/35/6 194/35/6 207/30/6 170/30/6
f 210/36/4 211/39/4 212/38/4 180/37/4 163/15/4
f 163/15/4 180/37/4 212/40/4 48/15/4 14/15/4
f 167/5/3 183/23/3 190/21/3 213/10/3 164/10/3
f 160/6/3 191/6/3 189/22/3 183/23/3 167/5/3
f 174/33/5 186/29/5 212/38/5 179/32/5
f 178/35/5 212/40/5 186/25/5 175/41/5
f 172/42/5 188/44/5 187/28/5 177/43/5
f 176/45/5 187/27/5 188/47/5 173/46/5
f 175/41/5 186/25/5 42/25/5 185/31/5
f 184/48/5 43/24/5 187/27/5 176/45/5
f 177/43/5 187/28/5 189/22/5 182/49/5
f 181/34/5 190/21/5 186/29/5 174/33/5
f 173/46/5 188/47/5 46/19/5 171/50/5
f 171/50/5 46/19/5 43/24/5 184/48/5
f 168/51/5 191/6/5 188/44/5 172/42/5
f 182/49/5 189/22/5 191/6/5 168/51/5
f 169/52/5 214/53/5 213/10/5
f 169/52/5 213/10/5 190/21/5 181/34/5
f 170/30/5 48/15/5 212/40/5 178/35/5
f 185/31/5 42/25/5 48/15/5 170/30/5
f 199/46/5 204/50/5 201/48/5 198/45/5
f 197/43/5 202/49/5 205/51/5 196/42/5
f 193/32/5 206/52/5 203/34/5 192/33/5
f 195/41/5 200/31/5 207/30/5 194/35/5
f 171/50/4 204/50/4 199/46/4 173/46/4
f 175/41/2 195/41/2 194/35/2 178/35/2
f 184/48/3 201/48/3 204/50/3 171/50/3
f 177/43/3 197/43/3 196/42/3 172/42/3
f 172/42/4 196/42/4 205/51/4 168/51/4
f 173/46/2 199/46/2 198/45/2 176/45/2
f 168/51/2 205/51/2 202/49/2 182/49/2
f 185/31/4 200/31/4 195/41/4 175/41/4
f 169/52/6 206/52/6 193/32/6 179/32/6
f 176/45/6 198/45/6 201/48/6 184/48/6
f 181/34/2 203/34/2 206/52/2 169/52/2
f 182/49/6 202/49/6 197/43/6 177/43/6
f 179/32/5 211/39/5 214/53/5 169/52/5
f 209/58/4 214/53/4 211/39/4 210/36/4
f 212/38/5 211/39/5 179/32/5
f 163/15/6 212/15/6 215/36/6 210/36/6
f 209/58/6 214/58/6 213/10/6 164/10/6
f 245/55/7 247/61/8 230/60/8 217/59/7
f 247/61/8 248/63/9 229/62/9 230/60/8
f 248/63/9 249/65/10 228/64/10 229/62/9
f 249/65/10 250/67/11 227/66/11 228/64/10
f 250/67/11 251/69/12 226/68/12 227/66/11
f 251/69/12 252/71/13 225/70/13 226/68/12
f 252/71/13 253/73/14 224/72/14 225/70/13
f 253/73/14 254/75/15 223/74/15 224/72/14
f 254/75/15 255/77/16 222/76/16 223/74/15
f 255/77/16 256/79/17 221/78/17 222/76/16
f 256/79/17 257/81/18 220/80/18 221/78/17
f 257/81/18 258/83/19 219/82/19 220/80/18
f 258/83/19 259/85/20 218/84/20 219/82/19
f 259/85/20 246/87/21 216/86/21 218/84/20
f 159/88/7 232/91/8 273/90/22 208/89/7
f 232/91/8 233/93/9 272/92/23 273/90/22
f 233/93/9 234/95/10 271/94/24 272/92/23
f 234/95/10 235/97/11 270/96/25 271/94/24
f 235/97/11 236/99/12 269/98/26 270/96/25
f 236/99/12 237/101/13 268/100/27 269/98/26
f 237/101/13 238/103/29 267/102/28 268/100/27
f 238/103/29 239/105/15 266/104/30 267/102/28
f 239/105/15 240/107/16 265/106/31 266/104/30
f 240/107/16 241/109/17 264/108/32 265/106/31
f 241/109/17 242/111/18 263/110/33 264/108/32
f 242/111/18 243/113/34 262/112/19 263/110/33
f 243/113/34 244/115/20 261/114/20 262/112/19
f 244/115/20 231/117/21 260/116/21 261/114/20
f 217/16/2 230/60/2 229/62/2 228/64/2 227/66/2 226/68/2 225/70/2 224/72/2 223/74/2 222/76/2 221/78/2 220/80/2 219/82/2 218/84/2 216/86/2 212/15/2 163/15/2
f 216/86/5 246/87/5 215/36/5 212/15/5
f 260/116/5 231/117/5 213/10/5 214/58/5
f 164/10/3 213/10/3 231/117/3 244/115/3 243/113/3 242/111/3 241/109/3 240/107/3 239/105/3 238/103/3 237/101/3 236/99/3 235/97/3 234/95/3 233/93/3 232/91/3 159/88/3
f 210/36/3 215/36/3 246/87/3 259/85/3 258/83/3 257/81/3 256/79/3 255/77/3 254/75/3 253/73/3 252/71/3 251/69/3 250/67/3 249/65/3 248/63/3 247/61/3 245/55/3
f 208/56/36 273/90/36 272/92/36 271/94/36 270/96/36 269/98/36 268/100/36 267/102/36 266/104/36 265/106/36 264/108/36 263/110/36 262/112/36 261/114/36 260/116/36 214/58/36 209/58/36
usemtl darkbrown
f 4/3/1 2/2/1 131/2/1 132/3/1
f 46/19/3 12/19/3 136/19/3 138/19/3
f 3/54/4 74/16/4 102/55/4 65/56/4 5/9/4 1/57/4
f 102/55/5 67/36/5 66/58/5 65/56/5
f 47/6/3 137/6/3 149/6/3 154/6/3
f 142/6/4 47/6/4 154/6/4 141/6/4
f 133/19/6 132/118/6 131/119/6 134/6/6
f 132/118/6 133/19/6 136/19/6 135/118/6
f 136/19/6 133/19/6 140/120/6 139/47/6 138/19/6
f 133/19/6 134/6/6 137/6/6 139/44/6 140/120/6
f 11/3/1 4/3/1 132/3/1 135/3/1
f 12/19/3 11/3/3 135/3/3 136/19/3
f 146/6/2 142/6/2 143/6/2 144/6/2
f 47/6/4 142/6/4 146/6/4 6/6/4
f 143/6/2 142/6/2 141/6/2 147/6/2
f 134/6/6 144/6/6 143/6/6 137/6/6
f 6/6/1 146/6/1 144/6/1 134/6/1
f 145/7/2 146/6/2 144/6/2 148/7/2
f 6/6/4 146/6/4 145/7/4 2/7/4
f 137/6/6 143/6/6 147/6/6 149/6/6
f 131/7/6 148/7/6 144/6/6 134/6/6
f 2/7/1 145/7/1 148/7/1 131/7/1
f 154/6/5 151/44/5 150/44/5 149/6/5
f 41/44/4 151/44/4 154/6/4 47/6/4
f 139/44/3 150/44/3 151/44/3 41/44/3
f 137/6/6 149/6/6 150/44/6 139/44/6
f 151/47/5 152/19/5 153/19/5 150/47/5
f 46/19/4 152/19/4 151/47/4 41/47/4
f 138/19/3 153/19/3 152/19/3 46/19/3
f 139/47/6 150/47/6 153/19/6 138/19/6
f 149/6/5 147/6/5 141/6/5 154/6/5
f 158/3/1 275/3/1 274/2/1 156/2/1
f 157/54/4 155/57/4 159/9/4 208/56/4 245/55/4 217/16/4
f 245/55/5 208/56/5 209/58/5 210/36/5
f 191/6/2 292/6/2 289/6/2 278/6/2
f 282/6/4 281/6/4 292/6/4 191/6/4
f 276/19/6 277/6/6 274/119/6 275/118/6
f 275/118/6 135/118/6 136/19/6 276/19/6
f 136/19/6 138/19/6 279/47/6 280/120/6 276/19/6
f 276/19/6 280/120/6 279/44/6 278/6/6 277/6/6
f 11/3/1 135/3/1 275/3/1 158/3/1
f 286/6/3 284/6/3 283/6/3 282/6/3
f 191/6/4 160/6/4 286/6/4 282/6/4
f 283/6/3 287/6/3 281/6/3 282/6/3
f 277/6/6 278/6/6 283/6/6 284/6/6
f 160/6/1 277/6/1 284/6/1 286/6/1
f 285/7/3 288/7/3 284/6/3 286/6/3
f 160/6/4 156/7/4 285/7/4 286/6/4
f 278/6/6 289/6/6 287/6/6 283/6/6
f 274/7/6 277/6/6 284/6/6 288/7/6
f 156/7/1 274/7/1 288/7/1 285/7/1
f 292/6/5 289/6/5 290/44/5 291/44/5
f 188/44/4 191/6/4 292/6/4 291/44/4
f 279/44/2 188/44/2 291/44/2 290/44/2
f 278/6/6 279/44/6 290/44/6 289/6/6
f 291/47/5 290/47/5 153/19/5 152/19/5
f 46/19/4 188/47/4 291/47/4 152/19/4
f 279/47/6 138/19/6 153/19/6 290/47/6
f 289/6/5 292/6/5 281/6/5 287/6/5
