# Blender 4.5.1 LTS
# www.blender.org
mtllib shop_table.mtl
o shop_table
v -0.524156 0.057546 2.903988
v -0.524156 0.962884 2.903988
v -0.524156 0.057546 -2.903988
v -0.524156 0.962884 -2.903988
v 0.214393 0.057546 2.903988
v 0.214393 0.962884 2.903988
v 0.214393 0.057546 -2.903988
v 0.214393 0.962884 -2.903988
v -0.524156 1.090772 2.903988
v -0.524156 1.090772 -2.903988
v 0.214393 1.090772 -2.903988
v 0.214393 1.090772 2.903988
v -0.645723 0.962884 3.070331
v -0.645723 0.962884 -3.070331
v 0.335959 0.962884 -3.070331
v 0.335959 0.962884 3.070331
v -0.645723 1.090772 3.070331
v -0.645723 1.090772 -3.070331
v 0.335959 1.090772 -3.070331
v 0.335959 1.090772 3.070331
vn -1.0000 -0.0000 -0.0000
vn -0.0000 -0.0000 -1.0000
vn 1.0000 -0.0000 -0.0000
vn -0.0000 -0.0000 1.0000
vn -0.0000 -1.0000 -0.0000
vn -0.0000 1.0000 -0.0000
vt 0.375000 0.000000
vt 0.625000 0.000000
vt 0.625000 0.250000
vt 0.375000 0.250000
vt 0.625000 0.500000
vt 0.375000 0.500000
vt 0.625000 0.750000
vt 0.375000 0.750000
vt 0.625000 1.000000
vt 0.375000 1.000000
vt 0.125000 0.500000
vt 0.125000 0.750000
vt 0.875000 0.500000
vt 0.875000 0.750000
s 0
usemtl darkbrown
f 2/9/5 6/7/5 16/7/5 13/9/5
f 11/5/6 10/13/6 9/14/6 12/7/6
f 4/3/5 2/2/5 13/2/5 14/3/5
f 10/13/6 11/5/6 19/5/6 18/13/6
f 12/7/6 9/14/6 17/14/6 20/7/6
f 14/3/1 13/2/1 17/2/1 18/3/1
f 13/9/4 16/7/4 20/7/4 17/9/4
f 15/5/2 14/3/2 18/3/2 19/5/2
f 16/7/3 15/5/3 19/5/3 20/7/3
f 8/5/5 4/3/5 14/3/5 15/5/5
f 11/5/6 12/7/6 20/7/6 19/5/6
f 9/14/6 10/13/6 18/13/6 17/14/6
f 6/7/5 8/5/5 15/5/5 16/7/5
usemtl lightbrown
f 1/1/1 2/2/1 4/3/1 3/4/1
f 3/4/2 4/3/2 8/5/2 7/6/2
f 7/6/3 8/5/3 6/7/3 5/8/3
f 5/8/4 6/7/4 2/9/4 1/10/4
f 3/11/5 7/6/5 5/8/5 1/12/5
