# Blender 4.5.1 LTS
# www.blender.org
mtllib shop_shelf.mtl
o shop_shelf
v -0.403934 -0.031286 -1.448707
v -0.285759 -0.031286 -1.448707
v -0.307467 -1.674836 -1.375192
v -0.403934 -0.790951 -1.448707
v 0.290213 -1.469987 -1.325278
v 0.290213 -0.111916 -1.325278
v 0.290213 -0.737031 -1.325278
v 0.290213 -0.844871 -1.325278
v 0.290213 -0.790951 -1.448707
v 0.290213 -0.031286 -1.448707
v 0.206852 -1.674836 -1.325278
v -0.287084 -0.844871 -1.325278
v -0.287084 -0.737031 -1.325278
v -0.287084 -0.111916 -1.325278
v -0.287084 -1.469987 -1.325278
v -0.403934 -1.550616 -0.000001
v -0.403934 -0.031286 -0.000001
v -0.403934 -0.790951 -0.000001
v 0.290213 -0.844871 -0.000001
v -0.403934 1.657049 -1.448707
v 0.290213 -0.111916 -0.000001
v 0.290213 -0.790951 -0.000001
v 0.290213 -0.031286 -0.000001
v 0.290213 -0.737031 -0.000001
v 0.290213 -1.469987 -0.000001
v -0.287084 -0.737031 -0.000001
v -0.287084 -0.844871 -0.000001
v -0.287084 -0.111916 -0.000001
v -0.287084 -1.469987 -0.000001
v 0.206852 -1.674836 -0.000001
v -0.285759 -0.031286 -0.000001
v -0.403934 -0.031286 1.448706
v -0.285759 -0.031286 1.448706
v -0.310888 -1.674836 1.375191
v -0.403934 -0.790951 1.448706
v 0.290213 -1.469987 1.325277
v 0.290213 -0.111916 1.325277
v 0.290213 -0.737031 1.325277
v 0.290213 -0.844871 1.325277
v 0.290213 -0.790951 1.448706
v 0.290213 -0.031286 1.448706
v 0.206852 -1.674836 1.325277
v -0.287084 -0.844871 1.325277
v -0.287084 -0.737031 1.325277
v -0.287084 -0.111916 1.325277
v -0.287084 -1.469987 1.325277
v -0.403934 1.488044 -1.448707
v -0.403934 0.728379 -1.448707
v 0.290213 1.407414 -1.325278
v 0.290213 0.049343 -1.325278
v 0.290213 0.674459 -1.325278
v 0.290213 0.782299 -1.325278
v 0.290213 0.728379 -1.448707
v 0.290213 1.488044 -1.448707
v -0.287084 0.782299 -1.325278
v -0.287084 0.674459 -1.325278
v -0.287084 0.049343 -1.325278
v -0.287084 1.407414 -1.325278
v -0.403934 1.488044 -0.000001
v -0.403934 0.728379 -0.000001
v 0.290213 0.782299 -0.000001
v 0.290213 0.049343 -0.000001
v 0.290213 0.728379 -0.000001
v 0.290213 0.674459 -0.000001
v 0.290213 1.407414 -0.000001
v -0.287084 0.674459 -0.000001
v -0.287084 0.782299 -0.000001
v -0.287084 0.049343 -0.000001
v -0.287084 1.407414 -0.000001
v 0.290213 1.488044 -0.000001
v -0.403934 1.488044 1.448706
v -0.403934 0.728379 1.448706
v 0.290213 1.407414 1.325277
v 0.290213 0.049343 1.325277
v 0.290213 0.674459 1.325277
v 0.290213 0.782299 1.325277
v 0.290213 0.728379 1.448706
v 0.290213 1.488044 1.448706
v -0.287084 0.782299 1.325277
v -0.287084 0.674459 1.325277
v -0.287084 0.049343 1.325277
v -0.287084 1.407414 1.325277
v -0.307467 -2.532309 -1.375192
v 0.206852 -2.532309 -1.325278
v -0.403934 -2.656529 -0.000001
v 0.206852 -2.532309 -0.000001
v -0.310888 -2.532309 1.375191
v 0.206852 -2.532309 1.325277
v 0.290213 1.657049 -1.448707
v -0.403934 1.657049 -0.000001
v 0.290213 1.657049 -0.000001
v -0.403934 1.657049 1.448706
v 0.290213 1.657049 1.448706
v 0.290213 -1.550616 -0.000001
v 0.193746 -1.674836 -1.375192
v 0.197167 -1.674836 1.375191
v 0.197167 -2.532309 1.375191
v 0.290213 -2.656529 -0.000001
v 0.193746 -2.532309 -1.375192
v -0.403934 -1.550616 -1.448707
v 0.290213 -1.550616 -1.448707
v -0.403934 -2.656529 -1.448707
v 0.290213 -2.656529 -1.448707
v 0.290213 -1.550616 1.448706
v 0.290213 -2.656529 1.448706
v -0.403934 -1.550616 1.448706
v -0.403934 -2.656529 1.448706
v -0.403934 1.537849 -0.000001
v -0.403934 1.537849 -1.448707
v -0.403934 1.537849 1.448706
v 0.290213 1.537849 -1.448707
v 0.290213 1.537849 -0.000001
v 0.290213 1.537849 1.448706
v -0.403934 1.537849 1.476475
v -0.403934 1.657049 1.476475
v -0.403934 1.537849 -1.476477
v -0.403934 1.657049 -1.476477
v 0.290213 1.657049 -1.476477
v 0.290213 1.537849 -1.476477
v 0.317982 1.537849 -1.448707
v 0.317982 1.657049 -1.448707
v 0.317982 1.537849 1.448706
v 0.317982 1.537849 -0.000001
v 0.317982 1.657049 -0.000001
v 0.317982 1.657049 1.448706
v 0.317982 1.657049 -1.476477
v 0.317982 1.537849 -1.476477
v 0.290213 1.657049 1.476475
v 0.290213 1.537849 1.476475
v 0.317982 1.537849 1.476475
v 0.317982 1.657049 1.476475
vn -0.0000 -0.0000 1.0000
vn -0.0000 -0.0000 -1.0000
vn 1.0000 -0.0000 -0.0000
vn -1.0000 -0.0000 -0.0000
vn -0.0000 1.0000 -0.0000
vn -0.0000 -1.0000 -0.0000
vn -0.0000 -0.5093 -0.8606
vn 0.8304 -0.5572 -0.0000
vn 0.8287 -0.0000 -0.5597
vn 0.8304 0.5572 -0.0000
vn 0.8287 -0.0000 0.5597
vn -0.0000 0.5093 -0.8606
vn 0.6061 -0.0000 -0.7954
vn -0.0000 -0.5093 0.8606
vn -0.6061 -0.0000 -0.7954
vn -0.6199 -0.0000 0.7846
vn -0.0000 0.5093 0.8606
vn 0.6199 -0.0000 0.7846
vt 0.470286 0.250000
vt 0.470286 0.500000
vt 0.542747 0.500000
vt 0.547643 0.250000
vt 0.625000 0.500000
vt 0.552539 0.500000
vt 0.625000 0.250000
vt 0.534536 0.621502
vt 0.534536 0.500000
vt 0.542747 0.625000
vt 0.478496 0.500000
vt 0.625000 0.125000
vt 0.547643 0.125000
vt 0.616789 0.621502
vt 0.616789 0.499999
vt 0.625000 0.625000
vt 0.560749 0.500000
vt 0.478496 0.621502
vt 0.560750 0.621502
vt 0.470286 0.621236
vt 0.552539 0.625000
vt 0.470286 0.506695
vt 0.470286 0.506695
vt 0.470286 0.621236
vt 0.000000 0.000000
vt 0.470286 0.364238
vt 0.470286 0.500000
vt 0.470286 0.500000
vt 0.470286 0.364238
vt 0.470286 0.500000
vt 0.470286 0.355776
vt 0.470286 0.506695
s 1
usemtl lightbrown
f 106/1/1 104/2/1 40/3/1 35/4/1
f 2/5/2 10/5/2 9/6/2 4/4/2 1/7/2
f 19/8/3 8/9/3 9/3/3 22/10/3
f 5/11/1 8/9/1 12/9/1 15/11/1
f 47/1/2 54/2/2 53/3/2 48/4/2
f 17/12/4 1/7/4 4/4/4 18/13/4
f 21/14/3 6/15/3 10/5/3 23/16/3
f 6/15/3 7/17/3 9/6/3 10/5/3
f 8/9/3 5/11/3 101/2/3 9/3/3
f 25/18/5 5/11/5 15/11/5 29/18/5
f 24/19/5 7/17/5 13/17/5 26/19/5
f 7/17/1 6/15/1 14/15/1 13/17/1
f 31/16/5 2/5/5 1/7/5 17/12/5
f 31/16/5 23/16/5 10/5/5 2/5/5
f 5/11/3 25/18/3 94/20/3 101/2/3
f 8/9/6 19/8/6 27/8/6 12/9/6
f 7/17/3 24/19/3 22/21/3 9/6/3
f 6/15/6 21/14/6 28/14/6 14/15/6
f 100/1/4 16/25/4 18/13/4 4/4/4
f 35/4/1 40/6/1 41/5/1 33/5/1 32/7/1
f 19/8/3 22/10/3 40/3/3 39/9/3
f 36/11/2 46/11/2 43/9/2 39/9/2
f 17/12/4 18/13/4 35/4/4 32/7/4
f 21/14/3 23/16/3 41/5/3 37/15/3
f 37/15/3 41/5/3 40/6/3 38/17/3
f 39/9/3 40/3/3 104/2/3 36/11/3
f 25/18/5 29/18/5 46/11/5 36/11/5
f 24/19/5 26/19/5 44/17/5 38/17/5
f 38/17/2 44/17/2 45/15/2 37/15/2
f 31/16/5 17/12/5 32/7/5 33/5/5
f 31/16/5 33/5/5 41/5/5 23/16/5
f 36/11/3 104/2/3 94/20/3 25/18/3
f 39/9/6 43/9/6 27/8/6 19/8/6
f 38/17/3 40/6/3 22/21/3 24/19/3
f 37/15/6 45/15/6 28/14/6 21/14/6
f 106/1/4 35/4/4 18/13/4 16/25/4
f 48/4/2 53/6/2 10/5/2 2/5/2 1/7/2
f 61/8/3 63/10/3 53/3/3 52/9/3
f 49/11/1 58/11/1 55/9/1 52/9/1
f 72/4/1 77/3/1 78/2/1 71/1/1
f 17/12/4 60/13/4 48/4/4 1/7/4
f 62/14/3 23/16/3 10/5/3 50/15/3
f 50/15/3 10/5/3 53/6/3 51/17/3
f 52/9/3 53/3/3 54/2/3 49/11/3
f 65/18/6 69/18/6 58/11/6 49/11/6
f 64/19/6 66/19/6 56/17/6 51/17/6
f 51/17/1 56/17/1 57/15/1 50/15/1
f 49/11/3 54/2/3 70/20/3 65/18/3
f 52/9/5 55/9/5 67/8/5 61/8/5
f 51/17/3 53/6/3 63/21/3 64/19/3
f 50/15/5 57/15/5 68/14/5 62/14/5
f 47/1/4 48/4/4 60/13/4 59/25/4
f 33/5/1 41/5/1 77/6/1 72/4/1 32/7/1
f 61/8/3 76/9/3 77/3/3 63/10/3
f 73/11/2 76/9/2 79/9/2 82/11/2
f 17/12/4 32/7/4 72/4/4 60/13/4
f 62/14/3 74/15/3 41/5/3 23/16/3
f 74/15/3 75/17/3 77/6/3 41/5/3
f 76/9/3 73/11/3 78/2/3 77/3/3
f 65/18/6 73/11/6 82/11/6 69/18/6
f 64/19/6 75/17/6 80/17/6 66/19/6
f 75/17/2 74/15/2 81/15/2 80/17/2
f 73/11/3 65/18/3 70/20/3 78/2/3
f 76/9/5 61/8/5 67/8/5 79/9/5
f 75/17/3 64/19/3 63/21/3 77/6/3
f 74/15/5 62/14/5 68/14/5 81/15/5
f 71/1/4 59/25/4 60/13/4 72/4/4
f 4/4/2 9/3/2 101/2/2 100/1/2
f 78/2/3 70/20/3 112/20/3 113/2/3
f 59/25/4 71/1/4 110/1/4 108/25/4
f 70/20/3 54/2/3 111/2/3 112/20/3
f 47/1/4 59/25/4 108/25/4 109/1/4
f 47/1/2 109/1/2 111/2/2 54/2/2
f 71/1/1 78/2/1 113/2/1 110/1/1
usemtl darkbrown
f 14/15/3 28/14/3 26/19/3 13/17/3
f 12/9/3 27/8/3 29/18/3 15/11/3
f 30/20/3 42/22/3 88/23/3 86/24/3
f 3/26/2 95/27/2 99/28/2 83/29/2
f 16/25/4 100/1/4 102/1/4 85/25/4
f 45/15/3 44/17/3 26/19/3 28/14/3
f 43/9/3 46/11/3 29/18/3 27/8/3
f 120/2/6 111/2/6 119/2/6 127/2/6
f 57/15/3 56/17/3 66/19/3 68/14/3
f 55/9/3 58/11/3 69/18/3 67/8/3
f 89/2/5 121/2/5 126/2/5 118/2/5
f 98/20/6 85/25/6 102/1/6 103/2/6
f 109/1/4 108/25/4 90/25/4 20/1/4
f 81/15/3 68/14/3 66/19/3 80/17/3
f 79/9/3 67/8/3 69/18/3 82/11/3
f 107/1/6 85/25/6 98/20/6 105/2/6
f 96/30/1 34/31/1 87/31/1 97/2/1
f 106/1/4 16/25/4 85/25/4 107/1/4
f 20/1/5 90/25/5 91/20/5 89/2/5
f 11/22/3 30/20/3 86/24/3 84/32/3
f 91/20/5 90/25/5 92/1/5 93/2/5
f 95/27/7 3/26/7 100/1/7 101/2/7
f 108/25/4 110/1/4 92/1/4 90/25/4
f 118/2/2 126/2/2 127/2/2 119/2/2
f 30/20/8 11/22/8 101/2/8 94/20/8
f 88/23/9 42/22/9 104/2/9 105/2/9
f 42/22/8 30/20/8 94/20/8 104/2/8
f 84/32/10 86/24/10 98/20/10 103/2/10
f 86/24/10 88/23/10 105/2/10 98/20/10
f 11/22/11 84/32/11 103/2/11 101/2/11
f 83/29/12 99/28/12 103/2/12 102/1/12
f 3/26/13 83/29/13 102/1/13 100/1/13
f 34/31/14 96/30/14 104/2/14 106/1/14
f 99/28/15 95/27/15 101/2/15 103/2/15
f 96/30/16 97/2/16 105/2/16 104/2/16
f 97/2/17 87/31/17 107/1/17 105/2/17
f 87/31/18 34/31/18 106/1/18 107/1/18
f 114/1/1 129/2/1 128/2/1 115/1/1
f 113/2/6 129/2/6 114/1/6 110/1/6
f 92/1/5 115/1/5 128/2/5 93/2/5
f 110/1/4 114/1/4 115/1/4 92/1/4
f 116/1/2 117/1/2 118/2/2 119/2/2
f 20/1/4 117/1/4 116/1/4 109/1/4
f 89/2/5 118/2/5 117/1/5 20/1/5
f 111/2/3 119/2/3 118/2/3 89/2/3
f 109/1/6 116/1/6 119/2/6 111/2/6
f 123/20/3 120/2/3 121/2/3 124/20/3
f 111/2/6 120/2/6 123/20/6 112/20/6
f 121/2/3 120/2/3 127/2/3 126/2/3
f 91/20/5 124/20/5 121/2/5 89/2/5
f 122/2/3 123/20/3 124/20/3 125/2/3
f 112/20/6 123/20/6 122/2/6 113/2/6
f 91/20/2 124/20/2 123/20/2 112/20/2
f 93/2/5 125/2/5 124/20/5 91/20/5
f 93/2/4 113/2/4 129/2/4 128/2/4
f 129/2/1 130/2/1 131/2/1 128/2/1
f 125/2/5 93/2/5 128/2/5 131/2/5
f 113/2/6 122/2/6 130/2/6 129/2/6
f 122/2/3 125/2/3 131/2/3 130/2/3
